<svg width="30" height="31" viewBox="0 0 30 31" fill="none" xmlns="http://www.w3.org/2000/svg">
<path fill-rule="evenodd" clip-rule="evenodd" d="M23.5418 9.5249H6.45823C5.65364 9.52675 5.00186 10.1771 5 10.9798V19.945C5.00186 20.7478 5.65364 21.3981 6.45823 21.3999H23.5418C24.3464 21.3981 24.9981 20.7478 25 19.945V10.9798C24.9981 10.1771 24.3464 9.52675 23.5418 9.5249ZM18.5966 12.6233C18.3705 12.6252 18.1882 12.8086 18.1882 13.0342C18.1899 13.208 18.3027 13.3612 18.4684 13.4148L17.6582 13.9199C17.538 13.8126 17.3654 13.7867 17.2188 13.8539C17.0723 13.9212 16.9797 14.0688 16.9831 14.2298C16.985 14.2632 16.9918 14.2961 17.0034 14.3274L14.9781 15.5837L12.9696 14.3274C12.9796 14.2956 12.9864 14.2629 12.9899 14.2298C12.9934 14.0688 12.9008 13.9212 12.7542 13.8539C12.6076 13.7867 12.435 13.8126 12.3148 13.9199L11.5047 13.4148C11.6703 13.3612 11.7831 13.208 11.7848 13.0342C11.7848 12.8886 11.707 12.7541 11.5806 12.6813C11.4542 12.6085 11.2985 12.6085 11.1722 12.6813C11.0458 12.7541 10.9679 12.8886 10.9679 13.0342C10.9664 13.051 10.9664 13.0679 10.9679 13.0847L7.0017 10.5824L6.99158 10.5353H8.61521C8.60332 10.5689 8.59649 10.6041 8.59495 10.6397C8.59495 10.8647 8.77782 11.0472 9.00339 11.0472C9.22897 11.0472 9.41183 10.8647 9.41183 10.6397C9.40756 10.6041 9.39964 10.5692 9.3882 10.5353H11.0118C10.9999 10.5689 10.9931 10.6041 10.9916 10.6397C10.9916 10.8647 11.1744 11.0472 11.4 11.0472C11.6256 11.0472 11.8085 10.8647 11.8085 10.6397C11.8069 10.6041 11.8 10.5689 11.7882 10.5353H13.4118C13.4015 10.5693 13.3947 10.6043 13.3916 10.6397C13.3916 10.8647 13.5744 11.0472 13.8 11.0472C14.0256 11.0472 14.2085 10.8647 14.2085 10.6397C14.2069 10.6041 14.2001 10.5689 14.1882 10.5353H15.8017C15.7898 10.5689 15.783 10.6041 15.7814 10.6397C15.7814 10.8647 15.9643 11.0472 16.1899 11.0472C16.4155 11.0472 16.5983 10.8647 16.5983 10.6397C16.5985 10.6046 16.5951 10.5696 16.5882 10.5353H18.2118C18.1988 10.5687 18.1909 10.6039 18.1882 10.6397C18.1882 10.8647 18.3711 11.0472 18.5966 11.0472C18.8222 11.0472 19.0051 10.8647 19.0051 10.6397C19.0035 10.6041 18.9967 10.5689 18.9848 10.5353H20.6085C20.5966 10.5689 20.5897 10.6041 20.5882 10.6397C20.5882 10.8647 20.7711 11.0472 20.9966 11.0472C21.2222 11.0472 21.4051 10.8647 21.4051 10.6397C21.4019 10.6043 21.3951 10.5693 21.3848 10.5353H23.0085C23.0065 10.5509 23.0065 10.5668 23.0085 10.5824L18.995 13.0847C18.9965 13.0679 18.9965 13.051 18.995 13.0342C18.9951 12.8124 18.8188 12.6306 18.5966 12.6233ZM23.867 20.2593C23.9506 20.176 23.9975 20.0629 23.9975 19.945L23.9874 11.1549L15.2954 16.5974C15.2146 16.6483 15.1209 16.6751 15.0254 16.6748H14.9748C14.8792 16.6751 14.7855 16.6483 14.7047 16.5974L6.01273 11.1549V19.945C6.01273 20.1905 6.21221 20.3895 6.4583 20.3895H23.552C23.6701 20.3895 23.7835 20.3427 23.867 20.2593Z" fill="#5B6770"/>
<path d="M17.3982 11.4277C17.1726 11.4277 16.9897 11.6102 16.9897 11.8352C16.9897 12.0603 17.1726 12.2428 17.3982 12.2428C17.6238 12.2428 17.8066 12.0603 17.8066 11.8352C17.8066 11.6102 17.6238 11.4277 17.3982 11.4277Z" fill="#5B6770"/>
<path d="M19.7981 12.2428C20.0237 12.2428 20.2065 12.0603 20.2065 11.8352C20.2065 11.6102 20.0237 11.4277 19.7981 11.4277C19.5725 11.4277 19.3896 11.6102 19.3896 11.8352C19.3896 11.9433 19.4327 12.047 19.5093 12.1234C19.5859 12.1998 19.6898 12.2428 19.7981 12.2428Z" fill="#5B6770"/>
<path d="M16.1999 12.6235C15.9748 12.6235 15.7921 12.8053 15.7915 13.0299C15.7909 13.2546 15.9726 13.4373 16.1977 13.4385C16.4228 13.4398 16.6065 13.259 16.6084 13.0344C16.6084 12.8088 16.426 12.6254 16.1999 12.6235Z" fill="#5B6770"/>
<path d="M12.6018 11.4277C12.3762 11.4277 12.1934 11.6102 12.1934 11.8352C12.1934 12.0603 12.3762 12.2428 12.6018 12.2428C12.8274 12.2428 13.0102 12.0603 13.0102 11.8352C13.0102 11.6102 12.8274 11.4277 12.6018 11.4277Z" fill="#5B6770"/>
<path d="M15.0017 11.4277C14.7761 11.4277 14.5933 11.6102 14.5933 11.8352C14.5933 12.0603 14.7761 12.2428 15.0017 12.2428C15.2273 12.2428 15.4101 12.0603 15.4101 11.8352C15.4083 11.6109 15.2265 11.4296 15.0017 11.4277Z" fill="#5B6770"/>
<path d="M15.0016 13.8223C14.7773 13.8223 14.5951 14.0028 14.5933 14.2265C14.5915 14.4502 14.7708 14.6336 14.995 14.6372C15.2192 14.6409 15.4045 14.4635 15.41 14.2399C15.4118 14.1303 15.3697 14.0246 15.293 13.9462C15.2163 13.8678 15.1114 13.8231 15.0016 13.8223Z" fill="#5B6770"/>
<path d="M13.8 12.6235C13.5749 12.6235 13.3922 12.8053 13.3916 13.0299C13.391 13.2546 13.5727 13.4373 13.7978 13.4385C14.0229 13.4398 14.2066 13.259 14.2085 13.0344C14.2085 12.8088 14.0261 12.6254 13.8 12.6235Z" fill="#5B6770"/>
<path d="M10.2019 11.4277C9.97632 11.4277 9.79346 11.6102 9.79346 11.8352C9.79346 12.0603 9.97632 12.2428 10.2019 12.2428C10.4275 12.2428 10.6103 12.0603 10.6103 11.8352C10.6103 11.6102 10.4275 11.4277 10.2019 11.4277Z" fill="#5B6770"/>
</svg>