<svg width="30" height="31" viewBox="0 0 30 31" fill="none" xmlns="http://www.w3.org/2000/svg">
<path d="M15.3599 16.854C15.191 16.854 15.0388 16.9554 14.9742 17.1109C14.9096 17.2664 14.9453 17.4454 15.0647 17.5645C15.1841 17.6835 15.3637 17.7191 15.5197 17.6547C15.6757 17.5903 15.7774 17.4385 15.7774 17.2702C15.7774 17.0403 15.5905 16.854 15.3599 16.854Z" fill="#5B6770"/>
<path d="M17.7598 16.854C17.5292 16.854 17.3423 17.0403 17.3423 17.2702C17.3423 17.5 17.5292 17.6864 17.7598 17.6864C17.9904 17.6864 18.1773 17.5 18.1773 17.2702C18.1773 17.0403 17.9904 16.854 17.7598 16.854Z" fill="#5B6770"/>
<path d="M16.5039 18.043C16.2734 18.043 16.0864 18.2293 16.0864 18.4591C16.0864 18.689 16.2734 18.8753 16.5039 18.8753C16.7345 18.8753 16.9215 18.689 16.9215 18.4591C16.9215 18.3488 16.8775 18.2429 16.7992 18.1649C16.7209 18.0868 16.6147 18.043 16.5039 18.043Z" fill="#5B6770"/>
<path d="M10.5567 16.854C10.3269 16.8559 10.1411 17.0411 10.1392 17.2702C10.1424 17.3024 10.1495 17.3341 10.1602 17.3646C10.221 17.5542 10.4079 17.6744 10.6062 17.6514C10.8045 17.6284 10.9587 17.4686 10.9742 17.2702C10.9742 17.1598 10.9302 17.0539 10.8519 16.9759C10.7736 16.8979 10.6674 16.854 10.5567 16.854Z" fill="#5B6770"/>
<path d="M12.9569 16.8541C12.8446 16.8522 12.7362 16.8951 12.6558 16.9733C12.5755 17.0514 12.5297 17.1583 12.5288 17.2702C12.5321 17.3024 12.5392 17.3341 12.5499 17.3647C12.5896 17.5523 12.7557 17.6866 12.9481 17.6866C13.1405 17.6866 13.3066 17.5523 13.3463 17.3647C13.357 17.3341 13.3641 17.3024 13.3674 17.2702C13.3655 17.0439 13.1839 16.8597 12.9569 16.8541Z" fill="#5B6770"/>
<path d="M20.1597 16.854C19.9291 16.854 19.7422 17.0403 19.7422 17.2702C19.7422 17.5 19.9291 17.6864 20.1597 17.6864C20.3903 17.6864 20.5772 17.5 20.5772 17.2702C20.5772 17.0403 20.3903 16.854 20.1597 16.854Z" fill="#5B6770"/>
<path d="M18.9282 18.043C18.6981 18.0449 18.5129 18.2321 18.5142 18.4615C18.5155 18.6909 18.7027 18.876 18.9328 18.8753C19.163 18.8747 19.3492 18.6886 19.3492 18.4592C19.3492 18.3482 19.3047 18.2418 19.2257 18.1636C19.1466 18.0855 19.0395 18.0421 18.9282 18.043Z" fill="#5B6770"/>
<path d="M23.6651 15.6475C23.4345 15.6475 23.2476 15.8338 23.2476 16.0636C23.2476 16.2935 23.4345 16.4798 23.6651 16.4798C23.8957 16.4798 24.0826 16.2935 24.0826 16.0636C24.0826 15.8338 23.8957 15.6475 23.6651 15.6475Z" fill="#5B6770"/>
<path d="M22.5596 16.854C22.3908 16.854 22.2385 16.9554 22.1739 17.1109C22.1093 17.2664 22.145 17.4454 22.2644 17.5645C22.3838 17.6835 22.5634 17.7191 22.7194 17.6547C22.8754 17.5903 22.9771 17.4385 22.9771 17.2702C22.9771 17.0403 22.7902 16.854 22.5596 16.854Z" fill="#5B6770"/>
<path d="M6.86578 15.6475C6.6969 15.6475 6.54466 15.7489 6.48004 15.9044C6.41541 16.0599 6.45113 16.2389 6.57054 16.3579C6.68995 16.477 6.86954 16.5126 7.02555 16.4481C7.18157 16.3837 7.2833 16.232 7.2833 16.0636C7.2833 15.8338 7.09637 15.6475 6.86578 15.6475Z" fill="#5B6770"/>
<path d="M25.9175 15.3675C25.6888 14.9513 25.3406 14.6128 24.9175 14.3952C24.9511 14.3179 24.9689 14.2347 24.9701 14.1504C24.9701 10.8419 20.2265 8.2749 16.1496 8.2749H15.0584C10.9779 8.2749 6.23434 10.8419 6.23434 14.1504C6.23091 14.1888 6.23091 14.2274 6.23434 14.2658C4.93617 14.4582 3.89061 14.8289 3.75728 15.941C3.69794 16.5301 4.00526 17.0957 4.53268 17.3679C5.0936 17.6887 5.6939 17.9356 6.31855 18.1024L6.50801 18.1653C6.32205 19.4034 6.50801 20.3966 7.10096 21.1765C8.50439 23.0581 11.9253 23.2399 15.6058 23.2749C23.8579 23.2154 24.9701 21.1765 24.9701 19.19C24.9701 19.0991 24.9701 19.0082 24.9701 18.9242C25.3243 18.7406 25.6188 18.4604 25.8192 18.1164C25.8838 18.0125 25.9424 17.9051 25.9946 17.7946C26.3605 17.02 26.3318 16.1175 25.9175 15.3675ZM15.0584 9.29262H16.1496C20.409 9.29262 23.8685 11.8736 23.9456 14.056C23.918 14.077 23.8887 14.0957 23.8579 14.1119C23.1611 14.4096 22.4229 14.5994 21.6686 14.675C19.659 14.9552 17.6313 15.0873 15.6022 15.0702C13.7966 15.0804 11.992 14.9788 10.199 14.7659C8.75701 14.5841 7.77461 14.3462 7.39217 14.1329C7.3499 14.1114 7.30993 14.0856 7.27288 14.056C7.35358 11.8736 10.7955 9.29262 15.0584 9.29262ZM15.6058 22.2327C12.3358 22.2082 9.04822 22.0613 7.91846 20.5505C7.5151 19.9483 7.36167 19.2137 7.49041 18.5011C8.88668 18.9481 10.317 19.2814 11.7674 19.4978C12.1498 19.5573 12.5252 19.6237 12.9006 19.6902C13.6339 19.8161 14.3883 19.949 15.1812 20.0399C16.2338 20.1413 17.0723 20.1973 17.8021 20.1973C19.2056 20.1973 20.2932 19.9839 22.2054 19.4558C22.6782 19.3326 23.1606 19.2495 23.6474 19.2075L23.9492 19.1725C23.9492 20.1658 23.9492 22.1872 15.6058 22.2642V22.2327ZM25.1912 16.9028C25.0657 16.8361 24.9146 16.8389 24.7917 16.9101C24.6688 16.9813 24.5917 17.1109 24.5877 17.2525C24.5878 17.4305 24.7023 17.5884 24.8719 17.6442C24.8246 17.7114 24.7718 17.7745 24.714 17.8331C24.5214 17.9967 24.2821 18.0958 24.0298 18.1164C23.9459 18.0471 23.837 18.0153 23.7288 18.0286C23.6206 18.0418 23.5226 18.0988 23.4579 18.1863C22.9424 18.234 22.4318 18.3253 21.9317 18.4591L21.7598 18.5046C21.7614 18.4836 21.7614 18.4626 21.7598 18.4416C21.7598 18.2118 21.5729 18.0254 21.3423 18.0254C21.1117 18.0254 20.9248 18.2118 20.9248 18.4416C20.9262 18.535 20.9596 18.6251 21.0195 18.6969C18.9143 19.232 17.9214 19.26 15.2619 19.0082C14.8619 18.9697 14.4725 18.9137 14.0865 18.8543C14.3139 18.8409 14.4886 18.6484 14.4791 18.4216C14.4697 18.1947 14.2796 18.0173 14.0519 18.0228C13.8242 18.0282 13.6429 18.2146 13.6445 18.4416C13.6458 18.6072 13.7448 18.7566 13.8971 18.8228L13.062 18.6829L12.041 18.5116C12.0427 18.4883 12.0427 18.4649 12.041 18.4416C12.041 18.3312 11.997 18.2254 11.9187 18.1473C11.8404 18.0693 11.7342 18.0254 11.6235 18.0254C11.4208 18.0267 11.2495 18.1753 11.22 18.3752C10.2482 18.2003 9.29382 17.98 8.55702 17.7701C8.42369 17.7317 8.30089 17.6967 8.18511 17.6582C8.35684 17.64 8.49789 17.5149 8.53597 17.3469C8.54551 17.3163 8.5514 17.2846 8.55351 17.2525C8.55351 17.0227 8.36658 16.8363 8.13599 16.8363C7.9054 16.8363 7.71847 17.0227 7.71847 17.2525C7.72058 17.2846 7.72647 17.3163 7.73601 17.3469C7.75238 17.4217 7.78876 17.4905 7.84127 17.5463L7.66935 17.4868L7.54655 17.4414C7.46585 17.4064 7.37463 17.3749 7.29042 17.3469C7.09628 17.277 6.8998 17.2106 6.70098 17.1476L6.60976 17.1161C5.76068 16.8468 4.70811 16.5111 4.76074 16.0355C4.8274 15.4444 5.96418 15.28 7.25884 15.1506C7.87642 15.3798 8.51601 15.545 9.16751 15.6438C8.96622 15.6717 8.81646 15.8434 8.81665 16.0459C8.80902 16.2509 8.95238 16.4309 9.15442 16.47C9.35645 16.509 9.5569 16.3955 9.62668 16.2025C9.69645 16.0095 9.61474 15.7946 9.43416 15.6962C10.0131 15.7871 10.6271 15.8571 11.2446 15.9095C11.2262 15.9564 11.2167 16.0062 11.2165 16.0564C11.2165 16.2863 11.4035 16.4726 11.634 16.4726C11.8646 16.4726 12.0516 16.2863 12.0516 16.0564C12.0495 16.0267 12.0436 15.9973 12.034 15.969C12.5849 16.0075 13.1217 16.032 13.6164 16.0494C13.6361 16.2636 13.8164 16.4275 14.0322 16.4275C14.2479 16.4275 14.4282 16.2636 14.4479 16.0494C14.89 16.0494 15.2759 16.0494 15.5707 16.0494H16.0373C16.0373 16.2774 16.2227 16.4621 16.4513 16.4621C16.68 16.4621 16.8653 16.2774 16.8653 16.0494C17.3425 16.0494 17.8758 16.0215 18.4442 15.9935C18.4422 16.0086 18.4422 16.0239 18.4442 16.0389C18.4442 16.2688 18.6311 16.4551 18.8617 16.4551C19.0923 16.4551 19.2792 16.2688 19.2792 16.0389C19.2829 16.0076 19.2829 15.9759 19.2792 15.9445C19.8336 15.9061 20.402 15.8571 20.9528 15.7906C20.8437 15.934 20.8403 16.1314 20.9446 16.2783C21.0488 16.4253 21.2366 16.488 21.4086 16.4332C21.5806 16.3785 21.6971 16.2189 21.6966 16.0389C21.6958 15.9108 21.6348 15.7904 21.5317 15.7137C22.3711 15.6148 23.1956 15.4164 23.9877 15.1227C24.4301 15.176 24.8208 15.4356 25.0403 15.8221C25.218 16.153 25.2715 16.5361 25.1912 16.9028Z" fill="#5B6770"/>
</svg>