<svg width="30" height="31" viewBox="0 0 30 31" fill="none" xmlns="http://www.w3.org/2000/svg">
<path fill-rule="evenodd" clip-rule="evenodd" d="M21.4034 12.1177L24.979 22.696V22.6872C25.0227 22.8246 24.9974 22.9743 24.9109 23.0904C24.8244 23.2064 24.6871 23.2749 24.541 23.2749H5.45897C5.31294 23.2749 5.17562 23.2064 5.08913 23.0904C5.00265 22.9743 4.97733 22.8246 5.02095 22.6872L8.5966 12.1089C8.63118 12.0058 8.70198 11.9182 8.79624 11.8621L14.699 8.37121C14.8613 8.25078 15.0823 8.24258 15.2533 8.35064L21.2038 11.8709C21.298 11.927 21.3688 12.0146 21.4034 12.1177ZM13.0841 22.3787H14.5203V13.9219C13.1631 14.128 12.1035 15.1872 11.913 16.5283C12.0832 16.5627 12.2024 16.7146 12.1934 16.8857C12.1845 17.0568 12.0502 17.1959 11.8773 17.2129V18.6087C12.0539 18.6314 12.186 18.7798 12.186 18.9554C12.186 19.131 12.0539 19.2794 11.8773 19.3021V20.6979C12.0582 20.7144 12.1966 20.864 12.1966 21.0432C12.1966 21.2223 12.0582 21.3719 11.8773 21.3884V22.3787H12.6907C12.5872 22.3162 12.5249 22.2045 12.5269 22.0848C12.5269 21.8885 12.6883 21.7293 12.8874 21.7293C13.0865 21.7293 13.248 21.8885 13.248 22.0848C13.2488 22.2042 13.1867 22.3154 13.0841 22.3787ZM17.3063 22.3787C17.4099 22.3162 17.4722 22.2045 17.4702 22.0848C17.4702 21.8885 17.3088 21.7293 17.1097 21.7293C16.9105 21.7293 16.7491 21.8885 16.7491 22.0848C16.7483 22.2042 16.8104 22.3154 16.913 22.3787H15.4559V13.9219C16.818 14.126 17.8834 15.1863 18.0781 16.5312C17.9192 16.5713 17.8095 16.7144 17.8138 16.8762C17.8181 17.0379 17.9351 17.1752 18.096 17.207V18.6116C17.933 18.6452 17.8163 18.7869 17.8163 18.951C17.8163 19.1151 17.933 19.2568 18.096 19.2904V20.7008C17.933 20.7344 17.8163 20.8761 17.8163 21.0402C17.8163 21.2044 17.933 21.346 18.096 21.3796V22.3787H17.3063ZM19.0106 17.2071V22.3787H23.9004L20.569 12.5585L14.994 9.25863L9.41896 12.5585L6.08765 22.3787H10.9446V16.7957C10.939 16.7528 10.939 16.7093 10.9446 16.6664C11.0888 14.5174 12.9398 12.871 15.1223 12.9505C17.3048 13.0301 19.0276 14.8066 19.0106 16.9602V17.2071Z" fill="#5B6770"/>
<path d="M17.1218 15.4678C16.9227 15.4678 16.7612 15.627 16.7612 15.8233C16.7612 16.0197 16.9227 16.1789 17.1218 16.1789C17.3209 16.1789 17.4823 16.0197 17.4823 15.8233C17.4823 15.627 17.3209 15.4678 17.1218 15.4678Z" fill="#5B6770"/>
<path d="M17.1218 17.5566C16.9227 17.5566 16.7612 17.7158 16.7612 17.9122C16.7612 18.1086 16.9227 18.2677 17.1218 18.2677C17.3209 18.2677 17.4823 18.1086 17.4823 17.9122C17.4823 17.7158 17.3209 17.5566 17.1218 17.5566V17.5566Z" fill="#5B6770"/>
<path d="M17.1218 19.6431C16.9227 19.6431 16.7612 19.8023 16.7612 19.9986C16.7612 20.195 16.9227 20.3542 17.1218 20.3542C17.3209 20.3542 17.4823 20.195 17.4823 19.9986C17.4823 19.8023 17.3209 19.6431 17.1218 19.6431V19.6431Z" fill="#5B6770"/>
<path d="M13.945 17.2218C14.1441 17.2218 14.3056 17.0627 14.3056 16.8663C14.3056 16.6699 14.1441 16.5107 13.945 16.5107C13.7459 16.5107 13.5845 16.6699 13.5845 16.8663C13.5845 17.0627 13.7459 17.2218 13.945 17.2218Z" fill="#5B6770"/>
<path d="M16.0637 16.502C15.8645 16.502 15.7031 16.6611 15.7031 16.8575C15.7031 17.0539 15.8645 17.2131 16.0637 17.2131C16.2628 17.2131 16.4242 17.0539 16.4242 16.8575C16.4242 16.6611 16.2628 16.502 16.0637 16.502Z" fill="#5B6770"/>
<path d="M12.5269 15.8233C12.5269 16.0197 12.6883 16.1789 12.8874 16.1789C13.0865 16.1789 13.2479 16.0197 13.2479 15.8233C13.2479 15.627 13.0865 15.4678 12.8874 15.4678C12.6883 15.4678 12.5269 15.627 12.5269 15.8233Z" fill="#5B6770"/>
<path d="M12.8874 17.5566C12.6883 17.5566 12.5269 17.7158 12.5269 17.9122C12.5269 18.1086 12.6883 18.2677 12.8874 18.2677C13.0865 18.2677 13.2479 18.1086 13.2479 17.9122C13.2479 17.7158 13.0865 17.5566 12.8874 17.5566V17.5566Z" fill="#5B6770"/>
<path d="M13.945 15.1354C14.1441 15.1354 14.3056 14.9762 14.3056 14.7799C14.3056 14.5835 14.1441 14.4243 13.945 14.4243C13.7459 14.4243 13.5845 14.5835 13.5845 14.7799C13.5845 14.9762 13.7459 15.1354 13.945 15.1354Z" fill="#5B6770"/>
<path d="M16.0637 14.4243C15.8645 14.4243 15.7031 14.5835 15.7031 14.7799C15.7031 14.9762 15.8645 15.1354 16.0637 15.1354C16.2628 15.1354 16.4242 14.9762 16.4242 14.7799C16.4242 14.5835 16.2628 14.4243 16.0637 14.4243Z" fill="#5B6770"/>
<path d="M13.945 21.4001C14.0923 21.4013 14.2258 21.3147 14.283 21.1808C14.3402 21.047 14.3098 20.8923 14.2061 20.7892C14.1024 20.686 13.9458 20.6548 13.8096 20.7101C13.6734 20.7654 13.5845 20.8963 13.5845 21.0416C13.5845 21.2384 13.7454 21.3985 13.945 21.4001Z" fill="#5B6770"/>
<path d="M16.0638 20.686C15.9162 20.6849 15.7825 20.7718 15.7255 20.906C15.6685 21.0402 15.6994 21.1951 15.8038 21.298C15.9081 21.4009 16.0652 21.4314 16.2013 21.3752C16.3374 21.3189 16.4255 21.1871 16.4243 21.0416C16.4243 20.8452 16.2629 20.686 16.0638 20.686Z" fill="#5B6770"/>
<path d="M12.8874 19.6431C12.6883 19.6431 12.5269 19.8023 12.5269 19.9986C12.5269 20.195 12.6883 20.3542 12.8874 20.3542C13.0865 20.3542 13.2479 20.195 13.2479 19.9986C13.2479 19.8023 13.0865 19.6431 12.8874 19.6431V19.6431Z" fill="#5B6770"/>
<path d="M13.945 19.3112C14.1441 19.3112 14.3056 19.152 14.3056 18.9556C14.3056 18.7593 14.1441 18.6001 13.945 18.6001C13.7459 18.6001 13.5845 18.7593 13.5845 18.9556C13.5845 19.152 13.7459 19.3112 13.945 19.3112Z" fill="#5B6770"/>
<path d="M16.0637 18.6001C15.8645 18.6001 15.7031 18.7593 15.7031 18.9556C15.7031 19.152 15.8645 19.3112 16.0637 19.3112C16.2628 19.3112 16.4242 19.152 16.4242 18.9556C16.4242 18.7593 16.2628 18.6001 16.0637 18.6001Z" fill="#5B6770"/>
</svg>