<svg width="30" height="31" viewBox="0 0 30 31" fill="none" xmlns="http://www.w3.org/2000/svg">
<path d="M12.5588 12.846C12.5588 12.5503 12.321 12.3105 12.0276 12.3105C11.7342 12.3105 11.4963 12.5503 11.4963 12.846C11.4963 13.1418 11.7342 13.3815 12.0276 13.3815C12.321 13.3815 12.5588 13.1418 12.5588 12.846Z" fill="#5B6770"/>
<path d="M17.9809 12.3135C17.6875 12.3135 17.4497 12.5532 17.4497 12.849C17.4497 13.1447 17.6875 13.3845 17.9809 13.3845C18.2743 13.3845 18.5122 13.1447 18.5122 12.849C18.5122 12.5532 18.2743 12.3135 17.9809 12.3135Z" fill="#5B6770"/>
<path d="M13.1792 20.4326C12.8858 20.4326 12.6479 20.6724 12.6479 20.9681C12.6479 21.2639 12.8858 21.5036 13.1792 21.5036C13.4726 21.5036 13.7104 21.2639 13.7104 20.9681C13.7104 20.6724 13.4726 20.4326 13.1792 20.4326Z" fill="#5B6770"/>
<path d="M16.8296 20.4326C16.5362 20.4326 16.2983 20.6724 16.2983 20.9681C16.2983 21.2639 16.5362 21.5036 16.8296 21.5036C17.123 21.5036 17.3608 21.2639 17.3608 20.9681C17.3608 20.6724 17.123 20.4326 16.8296 20.4326Z" fill="#5B6770"/>
<path fill-rule="evenodd" clip-rule="evenodd" d="M24.0887 7.11752C24.2847 7.01904 24.5174 7.03037 24.7031 7.14743C24.8923 7.27014 25.0047 7.48311 24.9999 7.70985C25.0012 7.7963 24.984 7.88203 24.9494 7.96114L24.3558 9.37914C23.7849 10.7219 22.4753 11.5926 21.026 11.5929H20.4057L20.5274 13.0378C20.5288 13.0488 20.5288 13.0598 20.5274 13.0707C20.5274 13.7887 20.0763 15.3054 19.1385 17.7466L19.0139 18.0667L19.0048 18.0895C18.811 18.5746 18.5911 19.1249 18.8833 19.6492C19.236 20.4429 19.236 21.3505 18.8833 22.1442C18.5608 22.7119 17.9786 23.08 17.3311 23.1254C16.8557 23.9645 15.9705 24.4824 15.0118 24.4824C14.0532 24.4824 13.168 23.9645 12.6925 23.1254C12.0255 23.0932 11.4206 22.7213 11.087 22.1382C10.7295 21.3467 10.7241 20.439 11.0721 19.6432C11.357 19.1107 11.1374 18.5543 10.9415 18.0607L10.8644 17.8632C10.3421 16.5021 9.4814 14.052 9.47546 13.0318V12.9989L9.58824 11.5929H8.97391C7.52467 11.5926 6.21499 10.7219 5.64408 9.37914L5.05052 7.96114C5.01589 7.87469 4.99874 7.78213 5.00007 7.68891C4.9995 7.46964 5.11185 7.26578 5.29685 7.15042C5.48379 7.02785 5.72146 7.0153 5.92008 7.11752L6.44537 7.38078C6.97992 7.64991 7.56917 7.79021 8.16668 7.79062C9.01727 7.79212 9.84469 8.07014 10.5261 8.58339L10.5943 8.63424C10.772 8.38051 10.9705 8.14234 11.1879 7.92225C11.3125 7.7966 11.4372 7.66497 11.5618 7.52736C11.911 7.12495 12.3043 6.76366 12.7341 6.4504C13.3907 5.99278 14.1677 5.74281 14.9658 5.73242H15.0341C15.8322 5.74318 16.6091 5.99311 17.2659 6.4504C17.6947 6.7637 18.087 7.125 18.4352 7.52736L18.8121 7.92524C19.03 8.14582 19.2286 8.38505 19.4056 8.64023L19.4828 8.58638C20.1628 8.07278 20.9894 7.79469 21.8392 7.79361C22.4367 7.7932 23.0259 7.6529 23.5605 7.38377L24.0887 7.11752ZM8.98286 10.7703H9.68325C9.77924 10.2779 9.94097 9.80089 10.164 9.35228L10.0305 9.25057C9.49098 8.84297 8.83499 8.62255 8.16079 8.62234C7.4398 8.61865 6.7292 8.44879 6.08335 8.12574L5.98541 8.0689L6.40387 9.05312C6.84609 10.0934 7.8601 10.7686 8.98286 10.7703ZM10.2766 13.0468L10.431 11.1532C10.5624 10.2297 10.9632 9.36648 11.5825 8.67315L11.6699 8.82678L11.6699 8.82678L11.6699 8.82679L11.6699 8.8268L11.6699 8.8268C11.8702 9.17891 12.0742 9.53751 12.2918 9.88473C13.0233 11.0626 13.4206 12.4201 13.4403 13.8097C13.4611 15.3234 12.9269 16.6696 12.3274 18.0308L11.9653 18.668C11.8976 18.3534 11.7981 18.0467 11.6685 17.7526L11.5973 17.5701C10.7841 15.3922 10.2885 13.702 10.2796 13.0468H10.2766ZM13.6957 23.1194C14.0423 23.4757 14.5154 23.6781 15.0104 23.6818C15.5029 23.6773 15.9736 23.4761 16.3192 23.1224C15.8361 23.1019 15.3718 22.9281 14.9926 22.6258C14.6232 22.9249 14.169 23.0978 13.6957 23.1194ZM18.18 21.7523C17.9596 22.1248 17.5565 22.348 17.1264 22.3356C15.9066 22.4074 15.5297 22.0365 15.5119 22.0155L15.4793 21.9826C15.1819 21.7475 14.7607 21.7588 14.4762 22.0095L14.4524 22.0335C14.4524 22.0335 14.0696 22.4104 12.8647 22.3326C12.3275 22.2877 11.9744 22.0963 11.7874 21.7343C11.4639 21.136 11.6657 20.2026 11.7726 20.0052C11.7824 19.9892 11.7897 19.9733 11.797 19.9573C11.8006 19.9493 11.8042 19.9414 11.8082 19.9334C11.8394 19.8812 11.8741 19.8312 11.912 19.7838C12.2239 19.4021 12.6918 19.185 13.1822 19.1945C13.6779 19.1945 14.3337 19.3171 14.6305 19.9124C14.698 20.0483 14.8359 20.134 14.9866 20.1338C15.137 20.1327 15.2742 20.0473 15.3428 19.9124C15.6396 19.3141 16.2925 19.1945 16.7881 19.1945C17.3168 19.1942 17.8127 19.453 18.1176 19.8885L18.1354 19.9065C18.1538 19.9505 18.1746 19.9934 18.1978 20.0351C18.4112 20.5895 18.4048 21.2054 18.18 21.7552V21.7523ZM18.4292 17.0735C18.4694 17.0732 18.509 17.0824 18.545 17.1005L18.5626 17.0511L18.5627 17.0511L18.5627 17.051C18.6329 16.8553 18.6965 16.6779 18.7349 16.5261L18.2393 16.3376C17.7721 16.1591 17.3415 15.8954 16.9691 15.5598C16.9795 15.5855 16.9855 15.6128 16.9869 15.6406C16.9869 15.8058 16.854 15.9397 16.6901 15.9397C16.5262 15.9397 16.3933 15.8058 16.3933 15.6406C16.3933 15.4753 16.5262 15.3414 16.6901 15.3414C16.7137 15.3383 16.7377 15.3383 16.7613 15.3414C16.2117 14.7697 15.8385 14.0495 15.687 13.2683C15.6084 13.2217 15.5553 13.1413 15.5432 13.0502C15.531 12.9591 15.561 12.8674 15.6247 12.8016V12.5024C15.6263 12.182 15.6642 11.8629 15.7374 11.5511C15.6231 11.5081 15.5466 11.3989 15.5445 11.2759C15.5393 11.182 15.5809 11.0917 15.6554 11.0352C15.7299 10.9787 15.8275 10.9635 15.9155 10.9947C16.1563 10.3814 16.5413 9.83624 17.0373 9.40614L18.171 8.42491L17.8772 8.1078L17.7941 8.02404C17.7388 8.0793 17.6642 8.11046 17.5864 8.11079C17.4225 8.11079 17.2896 7.97685 17.2896 7.81163C17.2907 7.73125 17.3239 7.6547 17.3816 7.59923C17.2272 7.44708 17.0615 7.30706 16.886 7.18041C16.8379 7.21688 16.7799 7.23775 16.7198 7.24024C16.5559 7.24024 16.423 7.10631 16.423 6.94109C16.4213 6.92918 16.4213 6.91709 16.423 6.90519C15.9942 6.68523 15.5211 6.56752 15.04 6.56116H14.9718C14.4747 6.5683 13.9864 6.69442 13.5472 6.92912C13.5472 7.09434 13.4144 7.22828 13.2505 7.22828C13.1999 7.22172 13.1519 7.20215 13.111 7.17144C12.9342 7.30107 12.7676 7.44408 12.6124 7.59923C12.6564 7.65106 12.6816 7.71651 12.6836 7.78471C12.6836 7.94993 12.5507 8.08387 12.3868 8.08387C12.3206 8.08196 12.2568 8.05774 12.2058 8.01506L12.1732 8.05096L12.2414 8.17661L12.3476 8.36354C12.552 8.72392 12.7579 9.08679 12.9982 9.45401C13.3496 10.0156 13.6316 10.6184 13.8381 11.2489C13.8456 11.1049 13.954 10.9868 14.0959 10.968C14.2378 10.9493 14.3728 11.0353 14.4168 11.1726C14.4609 11.3098 14.4015 11.4592 14.2756 11.5278C14.1497 11.5964 13.9932 11.5647 13.9034 11.4524C14.0298 11.8652 14.124 12.2873 14.1853 12.7148C14.3215 12.7413 14.4213 12.8593 14.4257 12.999C14.4249 13.1173 14.3551 13.2239 14.2476 13.2712C14.2743 13.4448 14.2743 13.6213 14.2743 13.7978C14.2773 14.0281 14.2654 14.2495 14.2506 14.4679C14.3569 14.5161 14.4254 14.6226 14.4257 14.7401C14.4213 14.8798 14.3215 14.9978 14.1853 15.0243C14.1152 15.4725 14.011 15.9145 13.8737 16.3466C13.9238 16.249 14.0229 16.187 14.1319 16.185C14.2958 16.185 14.4287 16.319 14.4287 16.4842C14.4287 16.6494 14.2958 16.7833 14.1319 16.7833C13.968 16.7833 13.8351 16.6494 13.8351 16.4842C13.832 16.4644 13.832 16.4442 13.8351 16.4244C13.6139 17.0895 13.3583 17.7426 13.0694 18.3808H13.1852C13.4441 18.3787 13.7023 18.4088 13.9538 18.4706C13.8738 18.4161 13.825 18.3257 13.8232 18.2283C13.8232 18.0631 13.9561 17.9291 14.12 17.9291C14.2839 17.9291 14.4168 18.0631 14.4168 18.2283C14.4168 18.3935 14.2839 18.5274 14.12 18.5274C14.4425 18.6276 14.7366 18.804 14.9777 19.042C15.2158 18.8046 15.5068 18.6281 15.8265 18.5274C15.6626 18.5274 15.5297 18.3935 15.5297 18.2283C15.5297 18.0631 15.6626 17.9291 15.8265 17.9291C15.9904 17.9291 16.1233 18.0631 16.1233 18.2283C16.1208 18.3301 16.0671 18.4236 15.9808 18.4766C16.25 18.4121 16.5263 18.3829 16.8029 18.3898C17.0033 18.3916 17.2027 18.4188 17.3964 18.4706C17.3233 18.4154 17.2796 18.3293 17.2777 18.2372C17.2777 18.072 17.4106 17.9381 17.5745 17.9381C17.7384 17.9381 17.8713 18.072 17.8713 18.2372C17.8713 18.4025 17.7384 18.5364 17.5745 18.5364C17.7181 18.5859 17.8571 18.648 17.99 18.7219C18.0547 18.3959 18.1542 18.0779 18.2868 17.7736L18.3342 17.6479C18.2164 17.6078 18.1359 17.498 18.1324 17.3727C18.1324 17.2075 18.2653 17.0735 18.4292 17.0735ZM19.0287 15.7632L18.533 15.5748C17.4566 15.168 16.6734 14.2183 16.4734 13.0771C16.2734 11.936 16.6865 10.7732 17.5596 10.0194L18.6963 9.02322C19.158 9.65001 19.4569 10.3833 19.5658 11.1562L19.7291 13.0888C19.7231 13.4178 19.5836 14.1508 19.0287 15.7513V15.7632ZM22.4683 10.3664C22.977 10.0627 23.3754 9.6023 23.605 9.05312L24.0294 8.0689L23.9284 8.11975C23.2828 8.44351 22.5721 8.61341 21.851 8.61635C21.1774 8.61741 20.522 8.8366 19.9813 9.24159L19.8389 9.3463C20.061 9.79713 20.2217 10.2761 20.3167 10.7703H21.026C21.5342 10.77 22.0328 10.6304 22.4683 10.3664Z" fill="#5B6770"/>
<path d="M17.5656 16.2031C17.4017 16.2031 17.2688 16.3371 17.2688 16.5023C17.2688 16.6675 17.4017 16.8014 17.5656 16.8014C17.7295 16.8014 17.8624 16.6675 17.8624 16.5023C17.8624 16.3371 17.7295 16.2031 17.5656 16.2031Z" fill="#5B6770"/>
<ellipse cx="14.9779" cy="8.65554" rx="0.293809" ry="0.296165" fill="#5B6770"/>
<ellipse cx="16.702" cy="8.65554" rx="0.293809" ry="0.296165" fill="#5B6770"/>
<ellipse cx="15.8385" cy="7.78445" rx="0.293809" ry="0.296165" fill="#5B6770"/>
<ellipse cx="14.1141" cy="7.78445" rx="0.293809" ry="0.296165" fill="#5B6770"/>
<ellipse cx="15.8385" cy="9.52566" rx="0.293809" ry="0.296165" fill="#5B6770"/>
<ellipse cx="14.1141" cy="9.52566" rx="0.293809" ry="0.296165" fill="#5B6770"/>
<ellipse cx="14.9779" cy="6.91726" rx="0.293809" ry="0.296165" fill="#5B6770"/>
<path d="M14.9777 11.8408C14.8138 11.8408 14.6809 11.9748 14.6809 12.14C14.6809 12.3052 14.8138 12.4391 14.9777 12.4391C15.1416 12.4391 15.2745 12.3052 15.2745 12.14C15.2745 11.9748 15.1416 11.8408 14.9777 11.8408Z" fill="#5B6770"/>
<ellipse cx="14.9779" cy="10.3968" rx="0.293809" ry="0.296165" fill="#5B6770"/>
<path d="M14.9777 15.3232C14.8138 15.3232 14.6809 15.4572 14.6809 15.6224C14.6809 15.7876 14.8138 15.9216 14.9777 15.9216C15.1416 15.9216 15.2745 15.7876 15.2745 15.6224C15.2745 15.4572 15.1416 15.3232 14.9777 15.3232Z" fill="#5B6770"/>
<path d="M15.8383 14.4531C15.6744 14.4531 15.5415 14.5871 15.5415 14.7523C15.5415 14.9175 15.6744 15.0514 15.8383 15.0514C16.0022 15.0514 16.1351 14.9175 16.1351 14.7523C16.1351 14.5871 16.0022 14.4531 15.8383 14.4531Z" fill="#5B6770"/>
<path d="M15.8383 16.2031C15.6744 16.2031 15.5415 16.3371 15.5415 16.5023C15.5415 16.6675 15.6744 16.8014 15.8383 16.8014C16.0022 16.8014 16.1351 16.6675 16.1351 16.5023C16.1351 16.3371 16.0022 16.2031 15.8383 16.2031Z" fill="#5B6770"/>
<path d="M14.9777 13.582C14.8138 13.582 14.6809 13.716 14.6809 13.8812C14.6809 14.0464 14.8138 14.1803 14.9777 14.1803C15.1416 14.1803 15.2745 14.0464 15.2745 13.8812C15.2745 13.716 15.1416 13.582 14.9777 13.582Z" fill="#5B6770"/>
<path d="M14.9777 17.0615C14.8138 17.0615 14.6809 17.1955 14.6809 17.3607C14.6809 17.5259 14.8138 17.6598 14.9777 17.6598C15.1416 17.6598 15.2745 17.5259 15.2745 17.3607C15.2745 17.1955 15.1416 17.0615 14.9777 17.0615Z" fill="#5B6770"/>
<path d="M16.7021 17.0615C16.5381 17.0615 16.4053 17.1955 16.4053 17.3607C16.4053 17.5259 16.5381 17.6598 16.7021 17.6598C16.866 17.6598 16.9988 17.5259 16.9988 17.3607C16.9988 17.1955 16.866 17.0615 16.7021 17.0615Z" fill="#5B6770"/>
<ellipse cx="13.2506" cy="8.65554" rx="0.293809" ry="0.296165" fill="#5B6770"/>
</svg>