<svg width="30" height="31" viewBox="0 0 30 31" fill="none" xmlns="http://www.w3.org/2000/svg">
<path fill-rule="evenodd" clip-rule="evenodd" d="M10.9551 5.77493H19.0355C19.4562 5.77232 19.8605 5.94365 20.1589 6.25097C20.4572 6.55829 20.625 6.97621 20.625 7.41213V24.1377C20.625 25.0419 19.9176 25.7749 19.0449 25.7749H10.9551C10.0824 25.7749 9.375 25.0419 9.375 24.1377V7.41213C9.375 6.50793 10.0824 5.77493 10.9551 5.77493ZM19.0354 24.7925C19.3845 24.7925 19.6674 24.4993 19.6674 24.1377L19.6769 7.41207C19.6769 7.05039 19.3939 6.75719 19.0449 6.75719H10.955C10.6059 6.75719 10.323 7.05039 10.323 7.41207V24.1377C10.323 24.4993 10.6059 24.7925 10.955 24.7925H19.0354Z" fill="#5B6770"/>
<path d="M18.4348 8.72168H11.5458C11.284 8.72168 11.0718 8.94158 11.0718 9.21284C11.0718 9.4841 11.284 9.704 11.5458 9.704H18.4348C18.6966 9.704 18.9089 9.4841 18.9089 9.21284C18.9089 8.94158 18.6966 8.72168 18.4348 8.72168Z" fill="#5B6770"/>
<path d="M18.4348 21.8193H11.5458C11.284 21.8193 11.0718 22.0392 11.0718 22.3105C11.0718 22.5818 11.284 22.8017 11.5458 22.8017H18.4348C18.6966 22.8017 18.9089 22.5818 18.9089 22.3105C18.9089 22.0392 18.6966 21.8193 18.4348 21.8193Z" fill="#5B6770"/>
<path d="M17.2374 11.5116C17.4485 11.5116 17.6197 11.3343 17.6197 11.1154C17.6197 10.8966 17.4485 10.7192 17.2374 10.7192C17.0262 10.7192 16.855 10.8966 16.855 11.1154C16.855 11.2205 16.8953 11.3213 16.967 11.3956C17.0387 11.4699 17.1359 11.5116 17.2374 11.5116Z" fill="#5B6770"/>
<path d="M17.2374 13.84C17.3939 13.8413 17.5356 13.7444 17.5961 13.5949C17.6566 13.4453 17.6238 13.2727 17.5131 13.158C17.4025 13.0434 17.2359 13.0094 17.0915 13.0721C16.9472 13.1347 16.8537 13.2816 16.855 13.4438C16.8567 13.6618 17.0269 13.8382 17.2374 13.84Z" fill="#5B6770"/>
<path d="M18.3589 12.6742C18.5701 12.6742 18.7413 12.4969 18.7413 12.278C18.7413 12.0592 18.5701 11.8818 18.3589 11.8818C18.1478 11.8818 17.9766 12.0592 17.9766 12.278C17.9766 12.4969 18.1478 12.6742 18.3589 12.6742Z" fill="#5B6770"/>
<path d="M16.1124 12.6742C16.3235 12.6742 16.4947 12.4969 16.4947 12.278C16.4947 12.0592 16.3235 11.8818 16.1124 11.8818C15.9012 11.8818 15.73 12.0592 15.73 12.278C15.73 12.4969 15.9012 12.6742 16.1124 12.6742Z" fill="#5B6770"/>
<path d="M18.3591 15.0024C18.5146 15.0023 18.6546 14.9047 18.7131 14.7554C18.7717 14.6062 18.7372 14.435 18.6259 14.3225C18.5146 14.21 18.3486 14.1786 18.206 14.243C18.0635 14.3075 17.9728 14.4549 17.9767 14.616C17.9818 14.831 18.1515 15.0024 18.3591 15.0024Z" fill="#5B6770"/>
<path d="M16.1125 15.0024C16.268 15.0023 16.408 14.9047 16.4666 14.7554C16.5251 14.6062 16.4907 14.435 16.3793 14.3225C16.268 14.21 16.102 14.1786 15.9595 14.243C15.8169 14.3075 15.7262 14.4549 15.7301 14.616C15.7352 14.831 15.9049 15.0024 16.1125 15.0024Z" fill="#5B6770"/>
<path d="M17.2374 16.1645C17.4485 16.1645 17.6197 15.9871 17.6197 15.7683C17.6197 15.5495 17.4485 15.3721 17.2374 15.3721C17.0262 15.3721 16.855 15.5495 16.855 15.7683C16.855 15.8734 16.8953 15.9741 16.967 16.0484C17.0387 16.1227 17.1359 16.1645 17.2374 16.1645Z" fill="#5B6770"/>
<path d="M17.2374 18.4926C17.4485 18.4926 17.6197 18.3152 17.6197 18.0964C17.6197 17.8776 17.4485 17.7002 17.2374 17.7002C17.0262 17.7002 16.855 17.8776 16.855 18.0964C16.855 18.3152 17.0262 18.4926 17.2374 18.4926Z" fill="#5B6770"/>
<path d="M18.3589 17.3271C18.5701 17.3271 18.7413 17.1497 18.7413 16.9309C18.7413 16.7121 18.5701 16.5347 18.3589 16.5347C18.1478 16.5347 17.9766 16.7121 17.9766 16.9309C17.9766 17.1497 18.1478 17.3271 18.3589 17.3271Z" fill="#5B6770"/>
<path d="M16.1124 17.3271C16.3235 17.3271 16.4947 17.1497 16.4947 16.9309C16.4947 16.7121 16.3235 16.5347 16.1124 16.5347C15.9012 16.5347 15.73 16.7121 15.73 16.9309C15.73 17.1497 15.9012 17.3271 16.1124 17.3271Z" fill="#5B6770"/>
<path d="M18.3589 19.6552C18.5701 19.6552 18.7413 19.4778 18.7413 19.259C18.7413 19.0402 18.5701 18.8628 18.3589 18.8628C18.1478 18.8628 17.9766 19.0402 17.9766 19.259C17.9766 19.4778 18.1478 19.6552 18.3589 19.6552Z" fill="#5B6770"/>
<path d="M16.1124 19.6552C16.3235 19.6552 16.4947 19.4778 16.4947 19.259C16.4947 19.0402 16.3235 18.8628 16.1124 18.8628C15.9012 18.8628 15.73 19.0402 15.73 19.259C15.73 19.4778 15.9012 19.6552 16.1124 19.6552Z" fill="#5B6770"/>
<path d="M17.2374 20.8173C17.4485 20.8173 17.6197 20.6399 17.6197 20.4211C17.6197 20.2023 17.4485 20.0249 17.2374 20.0249C17.0262 20.0249 16.855 20.2023 16.855 20.4211C16.855 20.5262 16.8953 20.627 16.967 20.7013C17.0387 20.7756 17.1359 20.8173 17.2374 20.8173Z" fill="#5B6770"/>
<path d="M12.7437 11.5116C12.9549 11.5116 13.1261 11.3343 13.1261 11.1154C13.1261 10.8966 12.9549 10.7192 12.7437 10.7192C12.5325 10.7192 12.3613 10.8966 12.3613 11.1154C12.3613 11.3343 12.5325 11.5116 12.7437 11.5116Z" fill="#5B6770"/>
<path d="M14.9908 11.5116C15.202 11.5116 15.3731 11.3343 15.3731 11.1154C15.3731 10.8966 15.202 10.7192 14.9908 10.7192C14.7796 10.7192 14.6084 10.8966 14.6084 11.1154C14.6084 11.2205 14.6487 11.3213 14.7204 11.3956C14.7921 11.4699 14.8894 11.5116 14.9908 11.5116Z" fill="#5B6770"/>
<path d="M12.7437 13.84C12.9002 13.8413 13.042 13.7444 13.1024 13.5949C13.1629 13.4453 13.1301 13.2727 13.0195 13.158C12.9088 13.0434 12.7422 13.0094 12.5979 13.0721C12.4535 13.1347 12.3601 13.2816 12.3613 13.4438C12.3613 13.6626 12.5325 13.84 12.7437 13.84Z" fill="#5B6770"/>
<path d="M14.9903 13.84C15.1468 13.8413 15.2885 13.7444 15.349 13.5949C15.4095 13.4453 15.3767 13.2727 15.2661 13.158C15.1554 13.0434 14.9888 13.0094 14.8445 13.0721C14.7001 13.1347 14.6066 13.2816 14.6079 13.4438C14.6079 13.6626 14.7791 13.84 14.9903 13.84Z" fill="#5B6770"/>
<path d="M13.8684 12.6742C14.0792 12.6724 14.2488 12.4942 14.2477 12.2759C14.2465 12.0575 14.075 11.8812 13.8642 11.8818C13.6535 11.8824 13.4829 12.0596 13.4829 12.278C13.4829 12.3837 13.5236 12.4849 13.596 12.5593C13.6684 12.6337 13.7665 12.6751 13.8684 12.6742Z" fill="#5B6770"/>
<path d="M11.6221 12.6742C11.8333 12.6742 12.0045 12.4969 12.0045 12.278C12.0045 12.0592 11.8333 11.8818 11.6221 11.8818C11.4109 11.8818 11.2397 12.0592 11.2397 12.278C11.2397 12.4969 11.4109 12.6742 11.6221 12.6742Z" fill="#5B6770"/>
<path d="M13.8686 15.0024C14.0238 15.001 14.1628 14.9025 14.2204 14.7532C14.278 14.6038 14.2427 14.4332 14.1311 14.3214C14.0195 14.2096 13.8538 14.1787 13.7117 14.2433C13.5695 14.308 13.4792 14.4552 13.483 14.616C13.4882 14.8322 13.6598 15.0042 13.8686 15.0024Z" fill="#5B6770"/>
<path d="M11.6217 15.0024C11.7773 15.0023 11.9172 14.9047 11.9758 14.7554C12.0344 14.6062 11.9999 14.435 11.8886 14.3225C11.7773 14.21 11.6113 14.1786 11.4687 14.243C11.3262 14.3075 11.2355 14.4549 11.2394 14.616C11.2445 14.831 11.4142 15.0024 11.6217 15.0024Z" fill="#5B6770"/>
<path d="M12.7437 16.1645C12.9549 16.1645 13.1261 15.9871 13.1261 15.7683C13.1261 15.5495 12.9549 15.3721 12.7437 15.3721C12.5325 15.3721 12.3613 15.5495 12.3613 15.7683C12.3613 15.9871 12.5325 16.1645 12.7437 16.1645Z" fill="#5B6770"/>
<path d="M14.9908 16.1645C15.202 16.1645 15.3731 15.9871 15.3731 15.7683C15.3731 15.5495 15.202 15.3721 14.9908 15.3721C14.7796 15.3721 14.6084 15.5495 14.6084 15.7683C14.6084 15.8734 14.6487 15.9741 14.7204 16.0484C14.7921 16.1227 14.8894 16.1645 14.9908 16.1645Z" fill="#5B6770"/>
<path d="M12.7437 18.4926C12.9549 18.4926 13.1261 18.3152 13.1261 18.0964C13.1261 17.8776 12.9549 17.7002 12.7437 17.7002C12.5325 17.7002 12.3613 17.8776 12.3613 18.0964C12.3613 18.3152 12.5325 18.4926 12.7437 18.4926Z" fill="#5B6770"/>
<path d="M14.9908 18.4926C15.202 18.4926 15.3731 18.3152 15.3731 18.0964C15.3731 17.8776 15.202 17.7002 14.9908 17.7002C14.7796 17.7002 14.6084 17.8776 14.6084 18.0964C14.6084 18.2015 14.6487 18.3023 14.7204 18.3766C14.7921 18.4509 14.8894 18.4926 14.9908 18.4926Z" fill="#5B6770"/>
<path d="M13.8684 17.3271C14.0792 17.3253 14.2488 17.1471 14.2477 16.9287C14.2465 16.7103 14.075 16.5341 13.8642 16.5347C13.6535 16.5353 13.4829 16.7125 13.4829 16.9309C13.4829 17.0365 13.5236 17.1378 13.596 17.2122C13.6684 17.2866 13.7665 17.3279 13.8684 17.3271Z" fill="#5B6770"/>
<path d="M11.6221 17.3271C11.8333 17.3271 12.0045 17.1497 12.0045 16.9309C12.0045 16.7121 11.8333 16.5347 11.6221 16.5347C11.4109 16.5347 11.2397 16.7121 11.2397 16.9309C11.2397 17.1497 11.4109 17.3271 11.6221 17.3271Z" fill="#5B6770"/>
<path d="M13.8684 19.6552C14.0792 19.6534 14.2488 19.4752 14.2477 19.2568C14.2465 19.0384 14.075 18.8622 13.8642 18.8628C13.6535 18.8634 13.4829 19.0406 13.4829 19.259C13.4829 19.3646 13.5236 19.4659 13.596 19.5403C13.6684 19.6147 13.7665 19.6561 13.8684 19.6552Z" fill="#5B6770"/>
<path d="M11.6221 19.6552C11.8333 19.6552 12.0045 19.4778 12.0045 19.259C12.0045 19.0402 11.8333 18.8628 11.6221 18.8628C11.4109 18.8628 11.2397 19.0402 11.2397 19.259C11.2397 19.4778 11.4109 19.6552 11.6221 19.6552Z" fill="#5B6770"/>
<path d="M12.7437 20.8173C12.9549 20.8173 13.1261 20.6399 13.1261 20.4211C13.1261 20.2023 12.9549 20.0249 12.7437 20.0249C12.5325 20.0249 12.3613 20.2023 12.3613 20.4211C12.3613 20.6399 12.5325 20.8173 12.7437 20.8173Z" fill="#5B6770"/>
<path d="M14.9908 20.8173C15.202 20.8173 15.3731 20.6399 15.3731 20.4211C15.3731 20.2023 15.202 20.0249 14.9908 20.0249C14.7796 20.0249 14.6084 20.2023 14.6084 20.4211C14.6084 20.5262 14.6487 20.627 14.7204 20.7013C14.7921 20.7756 14.8894 20.8173 14.9908 20.8173Z" fill="#5B6770"/>
</svg>